
CRAZY-TORRENT..COM
   |  | |  | |  | 
   |/\| |/\| |/\|,
   ~  ~ ~  ~ ~  ~~
                  
   _, __,  _, ___,
  / ` |_) /_\ ` / 
  \ , | \ | |  /  
   ~  ~ ~ ~ ~ ~~~ 
                  
 , _    ___  _, __,
 \ |     |  / \ |_)
  \| ~~  |  \ / | \
   )     ~   ~  ~ ~
  ~'               
  __, __, _, _ ___ 
  |_) |_  |\ |  |  
  | \ |   | \|  | ,
  ~ ~ ~~~ ~  ~  ~ ~
                   
     _,  _, _, _
    / ` / \ |\/|
    \ , \ / |  |
     ~   ~  ~  ~

 
http://www.imdb.com/title/tt1743360
Date: 2011.10
Format : AVI
Format/Info : Audio Video Interleave
File size : 701 MiB
Duration : 1h 26mn
Overall bit rate mode : Variable
Overall bit rate : 1 131 Kbps
Writing application : VirtualDubMod 1.5.10.2 (build 2540/release
Writing library : VirtualDubMod build 2540/release
Video
ID : 0
Format : MPEG-4 Visual
Format profile : Advanced SimpleL5
Format settings, BVOP : 2
Format settings, QPel : No
Format settings, GMC : No warppoints
Format settings, Matrix : Default (H.263
Codec ID : XVID
Codec ID/Hint : XviD
Duration : 1h 26mn
Bit rate : 989 Kbps
Width : 576 pixels
Height : 320 pixels
Display aspect ratio : 16:9
Frame rate : 23.976 fps
Color space : YUV
Chroma subsampling : 4:2:0
Bit depth : 8 bits
Scan type : Progressive
Compression mode : Lossy
Bits/(PixelFrame) : 0.224
Stream size : 613 MiB (87
Writing library : XviD 61
Audio
ID : 1
Format : MPEG Audio
Format version : Version 1
Format profile : Layer 3
Mode : Joint stereo
Mode extension : MS Stereo
Codec ID : 55
Codec ID/Hint : MP3
Duration : 1h 26mn
Bit rate mode : Variable
Bit rate : 130 Kbps
Minimum bit rate : 128 Kbps
Channel(s) : 2 channels
Sampling rate : 48.0 KHz
Compression mode : Lossy
Stream size : 80.5 MiB (11
Alignment : Aligned on interleaves
Interleave, duration : 24 ms (0.58 video frame
Interleave, preload duration : 141 ms
Writing library : LAME3.95
Encoding settings : -m j -V 4 -q 3 -lowpass 18 --vbr-old -b 128


Plot
Michael is a 'guardian angel' who appears when children need an invisible ('imaginary') friend until the birthday after his help worked. His charge from ages 5 to 10, would be-author Jane Claremont, is about to marry Tv series star Hugh Danderford. Now Michael appears again, but neither understands with which mission. He's in love with her, a new experience, gradually seduces her by being his irresistible, soul-mate-like self and becomes corporal. She stubbornly claims toward him, Hugh and her best friend, a psychotherapist, to remain committed to Hugh.

CRAZY-TORRENT..COM